<?xml version="1.0" encoding="iso-8859-1"?>
<!-- Generator: Adobe Illustrator 19.0.0, SVG Export Plug-In . SVG Version: 6.00 Build 0)  -->
<svg version="1.1" id="Capa_1" xmlns="http://www.w3.org/2000/svg" xmlns:xlink="http://www.w3.org/1999/xlink" x="0px" y="0px"
	 viewBox="0 0 463.001 463.001" style="enable-background:new 0 0 463.001 463.001;" xml:space="preserve">
<g>
	<path d="M436.591,124.023c-1.925-3.666-6.459-5.08-10.127-3.153c-3.668,1.925-5.079,6.459-3.154,10.127
		C439.462,161.758,448,196.512,448,231.5c0,57.829-22.52,112.197-63.411,153.089s-95.26,63.412-153.089,63.412
		s-112.197-22.52-153.089-63.412S15,289.329,15,231.5S37.52,119.303,78.411,78.411C119.303,37.52,173.671,15,231.5,15
		c34.999,0,69.762,8.542,100.531,24.704c3.667,1.929,8.201,0.514,10.127-3.152c1.926-3.667,0.515-8.201-3.152-10.127
		C306.095,9.138,268.92,0,231.5,0C169.664,0,111.53,24.08,67.805,67.805S0,169.664,0,231.5s24.08,119.971,67.805,163.695
		c43.725,43.725,101.859,67.805,163.695,67.805s119.971-24.08,163.695-67.805C438.92,351.471,463,293.336,463,231.5
		C463,194.092,453.868,156.927,436.591,124.023z"/>
	<path d="M326.764,83.296c2.093-3.575,0.892-8.169-2.684-10.261C296.106,56.657,264.092,48,231.5,48C130.318,48,48,130.318,48,231.5
		c0,101.183,82.317,183.5,183.5,183.5S415,332.683,415,231.5c0-32.582-8.651-64.587-25.02-92.556
		c-2.093-3.576-6.688-4.777-10.261-2.685c-3.575,2.092-4.777,6.687-2.685,10.261C392.059,172.193,400,201.578,400,231.5
		c0,92.912-75.589,168.5-168.5,168.5S63,324.412,63,231.5C63,138.589,138.589,63,231.5,63c29.931,0,59.324,7.946,85.002,22.979
		C320.075,88.072,324.671,86.87,326.764,83.296z"/>
	<path d="M302.222,105.809c1.844-3.709,0.331-8.21-3.378-10.054C277.81,85.301,255.153,80,231.5,80C147.963,80,80,147.963,80,231.5
		s67.963,151.5,151.5,151.5S383,315.038,383,231.5c0-24.147-5.823-48.174-16.841-69.485c-1.903-3.68-6.429-5.12-10.106-3.218
		c-3.68,1.902-5.12,6.427-3.218,10.107C362.898,188.369,368,209.429,368,231.5c0,75.267-61.233,136.5-136.5,136.5
		S95,306.767,95,231.5C95,156.234,156.234,95,231.5,95c21.314,0,41.727,4.773,60.668,14.188
		C295.876,111.03,300.378,109.518,302.222,105.809z"/>
	<path d="M262.712,140.377c1.03-4.012-1.387-8.1-5.399-9.13C248.924,129.092,240.24,128,231.5,128C174.43,128,128,174.43,128,231.5
		s46.43,103.5,103.5,103.5S335,288.57,335,231.5c0-8.763-1.099-17.471-3.265-25.88c-1.033-4.011-5.119-6.423-9.134-5.393
		c-4.011,1.033-6.425,5.123-5.392,9.134c1.852,7.188,2.79,14.637,2.79,22.139c0,48.799-39.701,88.5-88.5,88.5S143,280.299,143,231.5
		s39.701-88.5,88.5-88.5c7.481,0,14.911,0.934,22.082,2.775C257.591,146.805,261.681,144.388,262.712,140.377z"/>
	<path d="M231.5,175c4.143,0,7.5-3.358,7.5-7.5s-3.357-7.5-7.5-7.5c-39.425,0-71.5,32.075-71.5,71.5s32.075,71.5,71.5,71.5
		s71.5-32.075,71.5-71.5c0-4.142-3.357-7.5-7.5-7.5s-7.5,3.358-7.5,7.5c0,31.154-25.346,56.5-56.5,56.5S175,262.654,175,231.5
		S200.346,175,231.5,175z"/>
	<path d="M331.605,120.788c-3.207-1.595-6.761-2.444-10.449-2.444c-6.281,0-12.184,2.446-16.616,6.884l-49.656,49.656
		c-4.438,4.439-6.884,10.34-6.884,16.616c0,3.686,0.85,7.241,2.445,10.448l-24.249,24.249c-2.929,2.929-2.929,7.678,0,10.606
		c1.465,1.464,3.385,2.197,5.304,2.197s3.839-0.732,5.304-2.197l24.248-24.248c3.207,1.595,6.761,2.444,10.449,2.444
		c6.281,0,12.184-2.446,16.616-6.884l49.656-49.656c4.438-4.439,6.884-10.34,6.884-16.616c0-3.686-0.85-7.241-2.445-10.448
		L354.607,119H399.5c1.989,0,3.896-0.79,5.304-2.197l56-56c2.145-2.145,2.786-5.371,1.625-8.173c-1.16-2.803-3.896-4.63-6.929-4.63
		H415V7.5c0-3.034-1.827-5.768-4.63-6.929c-2.803-1.161-6.028-0.519-8.174,1.626l-56,56C344.79,59.603,344,61.511,344,63.5v44.893
		L331.605,120.788z M327.165,147.853l-49.659,49.66c-1.603,1.604-3.735,2.487-6.006,2.487s-4.404-0.883-6.009-2.491
		c-1.606-1.606-2.491-3.74-2.491-6.009s0.885-4.403,2.491-6.009l49.659-49.66c1.603-1.604,3.735-2.487,6.006-2.487
		s4.404,0.883,6.009,2.491C330.479,139.148,330.479,144.54,327.165,147.853z M359,66.607l41-41V55.5c0,4.142,3.357,7.5,7.5,7.5
		h29.894l-41,41h-26.787l19.197-19.197c2.929-2.929,2.929-7.678,0-10.606c-2.93-2.929-7.678-2.929-10.607,0L359,93.393V66.607z"/>
</g>
<g>
</g>
<g>
</g>
<g>
</g>
<g>
</g>
<g>
</g>
<g>
</g>
<g>
</g>
<g>
</g>
<g>
</g>
<g>
</g>
<g>
</g>
<g>
</g>
<g>
</g>
<g>
</g>
<g>
</g>
</svg>
