<svg version="1.1" id="designs" xmlns="http://www.w3.org/2000/svg" xmlns:xlink="http://www.w3.org/1999/xlink" x="0px" y="0px"
	 width="32px" height="32px" viewBox="0 0 32 32" style="enable-background:new 0 0 32 32;" xml:space="preserve">
<style type="text/css">
	.sketchy_een{fill:#111918;}
</style>
<path class="sketchy_een" d="M11.739,7.105c-0.013-0.005-0.025-0.011-0.038-0.016l-0.001,0C11.713,7.095,11.726,7.1,11.739,7.105z
	 M23.071,23.497c-0.053,0.041-0.107,0.082-0.16,0.123c-0.005,0.004-0.01,0.008-0.015,0.012
	C22.955,23.587,23.012,23.542,23.071,23.497z M29.994,12.379c-0.018,0.234-0.045,0.467-0.086,0.697
	c-0.043,0.247-0.09,0.489-0.147,0.732c-0.106,0.467-0.255,0.932-0.444,1.374c-0.687,1.615-1.696,3.048-2.67,4.499
	c-0.237,0.353-0.489,0.697-0.748,1.038c-0.302,0.4-0.642,0.768-0.989,1.129c-0.62,0.643-1.292,1.226-1.999,1.772
	c-0.051,0.04-0.103,0.08-0.155,0.119c-0.887,0.677-1.806,1.311-2.694,1.987c-0.74,0.582-1.478,1.167-2.23,1.735
	c-0.146,0.11-0.373,0.121-0.559,0.089c-0.005,0.009-0.004,0.019-0.009,0.027c-0.102,0.179-0.275,0.31-0.473,0.365
	c-0.139,0.037-0.281,0.037-0.42,0c-0.171-0.071-0.34-0.143-0.506-0.222c-0.324-0.151-0.638-0.308-0.942-0.493
	c-0.342-0.206-0.693-0.395-1.025-0.618c-0.667-0.451-1.354-0.871-2.02-1.325c-0.726-0.497-1.449-0.997-2.138-1.545
	c-0.666-0.527-1.303-1.088-1.973-1.611c-0.42-0.323-0.84-0.643-1.24-0.99c-0.41-0.357-0.817-0.722-1.213-1.095
	c-0.85-0.795-1.613-1.714-2.187-2.728c-0.455-0.807-0.797-1.684-0.997-2.587c-0.028-0.124-0.039-0.251-0.057-0.377
	C2.035,14.097,2,13.836,2,13.579c0.002-0.371,0.047-0.75,0.122-1.113c0.09-0.442,0.204-0.874,0.338-1.303
	c0.145-0.465,0.347-0.919,0.569-1.354c0.186-0.369,0.391-0.734,0.626-1.076c0.522-0.762,1.089-1.502,1.786-2.116
	C5.92,6.192,6.434,5.8,7.013,5.521c0.473-0.226,0.974-0.369,1.48-0.5c0.308-0.08,0.632-0.139,0.95-0.165
	c0.089-0.008,0.178-0.011,0.267-0.011c0.255,0,0.51,0.028,0.763,0.066c0.204,0.031,0.408,0.059,0.607,0.112
	c0.461,0.124,0.909,0.279,1.345,0.473c0.187,0.083,0.379,0.161,0.554,0.267c0.185,0.112,0.367,0.228,0.548,0.347
	c0.353,0.232,0.705,0.463,1.048,0.709c0.4,0.285,0.775,0.601,1.138,0.93c0.148,0.135,0.276,0.289,0.415,0.432
	c0.493-0.699,0.992-1.408,1.592-2.018c0.33-0.336,0.675-0.632,1.048-0.919c0.387-0.298,0.83-0.504,1.278-0.691
	c0.42-0.175,0.86-0.302,1.311-0.373c0.271-0.043,0.544-0.088,0.819-0.112c0.214-0.017,0.433-0.04,0.649-0.04
	c0.061,0,0.123,0.002,0.184,0.006c1.058,0.079,2.071,0.402,3.015,0.875c0.373,0.187,0.72,0.418,1.056,0.667
	c0.389,0.286,0.795,0.585,1.109,0.958c0.618,0.734,1.08,1.598,1.349,2.522c0.12,0.416,0.224,0.832,0.3,1.26
	c0.084,0.469,0.133,0.964,0.149,1.441C29.992,11.963,30.009,12.175,29.994,12.379z M28.176,10.716
	c-0.106-0.626-0.273-1.23-0.487-1.827C27.514,8.505,27.315,8.14,27.08,7.79c-0.249-0.292-0.52-0.55-0.819-0.794
	c-0.23-0.172-0.463-0.34-0.709-0.489c-0.252-0.151-0.516-0.279-0.784-0.4c-0.5-0.191-1.016-0.331-1.543-0.423
	c-0.394-0.034-0.777-0.011-1.167,0.035c-0.224,0.039-0.449,0.077-0.671,0.132c-0.221,0.057-0.436,0.125-0.65,0.203
	c-0.35,0.159-0.681,0.338-0.999,0.557c-0.56,0.459-1.054,0.975-1.506,1.541c-0.402,0.543-0.779,1.106-1.161,1.665
	c-0.118,0.174-0.266,0.299-0.462,0.369c-0.332,0.204-0.802,0.202-1.07-0.106c-0.287-0.326-0.569-0.661-0.887-0.956
	c-0.261-0.243-0.523-0.478-0.797-0.706c-0.308-0.227-0.624-0.438-0.948-0.643c-0.361-0.232-0.718-0.469-1.111-0.646
	c-0.013-0.005-0.025-0.01-0.038-0.016c0.016,0.007,0.032,0.013,0.048,0.02l0,0c-0.002-0.001-0.004-0.002-0.006-0.003
	c0.006,0.002,0.011,0.005,0.017,0.007c-0.004-0.001-0.007-0.003-0.011-0.005c0.004,0.002,0.008,0.003,0.012,0.005
	c-0.004-0.002-0.009-0.004-0.013-0.005c-0.046-0.019-0.091-0.038-0.137-0.057c0.01,0.004,0.021,0.009,0.031,0.013
	c-0.003-0.001-0.006-0.003-0.009-0.004c0.003,0.001,0.007,0.003,0.01,0.004c0.015,0.007,0.03,0.013,0.045,0.02
	c-0.526-0.202-1.049-0.361-1.603-0.453C9.905,6.635,9.672,6.63,9.435,6.652c-0.479,0.086-0.947,0.22-1.408,0.377
	C7.848,7.107,7.673,7.192,7.506,7.298C7.358,7.39,7.215,7.49,7.073,7.592C6.532,8.035,6.047,8.531,5.605,9.074
	c-0.227,0.306-0.452,0.615-0.649,0.94c-0.212,0.349-0.402,0.705-0.58,1.072c-0.265,0.665-0.456,1.349-0.572,2.056
	c-0.026,0.29-0.022,0.574,0.006,0.864c0.046,0.291,0.105,0.573,0.188,0.859c0.079,0.273,0.182,0.539,0.286,0.804
	c0.161,0.347,0.329,0.689,0.532,1.014c0.195,0.313,0.409,0.61,0.632,0.903c0.805,1.005,1.756,1.899,2.74,2.724
	c0.483,0.404,0.987,0.779,1.468,1.186c0.467,0.393,0.926,0.795,1.405,1.172c0.964,0.727,1.973,1.388,2.982,2.052
	c0.868,0.569,1.724,1.172,2.656,1.634c0.074-0.124,0.168-0.229,0.293-0.325c0.159-0.123,0.32-0.241,0.477-0.362
	c0.058-0.044,0.115-0.089,0.173-0.133c-0.057,0.043-0.114,0.086-0.169,0.13c0.64-0.505,1.268-1.025,1.916-1.517
	c0.63-0.477,1.268-0.94,1.898-1.417l-0.001,0.001c0.05-0.038,0.099-0.076,0.149-0.115c-0.014,0.011-0.028,0.022-0.042,0.033
	c0.02-0.015,0.039-0.031,0.059-0.046c0.038-0.029,0.076-0.058,0.114-0.087c-0.024,0.018-0.048,0.036-0.071,0.054
	c0.519-0.408,1.029-0.822,1.508-1.279c0.516-0.493,1.01-1.005,1.469-1.554c0.621-0.831,1.198-1.699,1.763-2.57
	c0.562-0.866,1.082-1.756,1.504-2.697c0.228-0.628,0.405-1.272,0.508-1.933C28.305,11.93,28.245,11.319,28.176,10.716z
	 M21.453,22.601c0.014-0.011,0.029-0.022,0.043-0.034c-0.02,0.015-0.04,0.031-0.06,0.047C21.442,22.61,21.447,22.605,21.453,22.601z
	 M26.426,9.601c-0.155-0.155-0.369-0.245-0.591-0.245c-0.22,0-0.434,0.09-0.589,0.245c-0.143,0.143-0.267,0.381-0.245,0.591
	c0.02,0.19,0.043,0.381,0.071,0.571c-0.001-0.009-0.003-0.018-0.004-0.027c-0.003-0.024-0.006-0.047-0.01-0.071
	c0.003,0.023,0.006,0.046,0.009,0.069c-0.003-0.016-0.005-0.033-0.007-0.049c0.006,0.04,0.011,0.081,0.017,0.121
	c0.007,0.052,0.013,0.104,0.021,0.157c-0.01-0.073-0.02-0.147-0.029-0.22c0.041,0.308,0.08,0.614,0.092,0.925
	c0.013,0.313-0.024,0.632-0.057,0.942c-0.027,0.18-0.058,0.36-0.104,0.538c-0.056,0.22-0.135,0.434-0.221,0.646
	c-0.228,0.533-0.475,1.056-0.77,1.556c-0.317,0.538-0.681,1.041-1.058,1.537c-0.068,0.084-0.138,0.167-0.212,0.247
	c-0.298,0.316-0.314,0.812,0,1.127c0.149,0.147,0.353,0.234,0.563,0.234c0.19,0,0.438-0.078,0.563-0.234
	c0.111-0.139,0.219-0.279,0.327-0.419c0.432-0.557,0.85-1.116,1.21-1.723c0.332-0.563,0.614-1.16,0.872-1.763
	c0.145-0.34,0.275-0.683,0.347-1.048c0.077-0.377,0.122-0.758,0.151-1.14c0.049-0.666-0.037-1.317-0.1-1.977
	C26.648,9.963,26.595,9.768,26.426,9.601z M24.304,17.698c-0.037,0.049-0.076,0.096-0.113,0.145
	c-0.004,0.005-0.007,0.01-0.011,0.014C24.221,17.804,24.263,17.751,24.304,17.698z"/>
</svg>