<?xml version="1.0" standalone="no"?>
<!DOCTYPE svg PUBLIC "-//W3C//DTD SVG 20010904//EN"
 "http://www.w3.org/TR/2001/REC-SVG-20010904/DTD/svg10.dtd">
<svg version="1.0" xmlns="http://www.w3.org/2000/svg"
 width="4375.000000pt" height="4375.000000pt" viewBox="0 0 4375.000000 4375.000000"
 preserveAspectRatio="xMidYMid meet">

<g transform="translate(0.000000,4375.000000) scale(0.100000,-0.100000)"
fill="#000000" stroke="none">
<path d="M33470 34000 c-71 -11 -211 -56 -275 -87 -263 -132 -455 -377 -521
-668 -23 -101 -24 -299 -2 -400 51 -227 184 -434 369 -572 49 -37 89 -71 89
-76 0 -5 -81 -166 -180 -358 -99 -191 -180 -354 -180 -363 0 -8 5 -18 10 -21
6 -4 192 87 413 201 509 262 590 305 707 368 l95 51 385 6 c360 5 390 7 465
28 227 64 419 203 554 401 187 272 217 641 77 937 -126 265 -353 454 -645 536
-73 20 -96 21 -691 23 -338 1 -640 -2 -670 -6z m682 -242 c48 -14 84 -54 99
-111 12 -44 4 -230 -26 -607 -20 -242 -35 -280 -115 -280 -47 0 -73 29 -89 98
-18 78 -63 631 -59 717 5 99 29 153 78 177 41 21 59 22 112 6z m35 -1188 c48
-29 67 -65 67 -124 0 -62 -26 -105 -78 -130 -96 -45 -202 12 -213 116 -6 53
12 93 57 132 40 33 118 36 167 6z"/>
<path d="M11115 33850 c-278 -30 -531 -187 -692 -428 -208 -311 -216 -715 -21
-1032 124 -201 317 -352 546 -424 120 -38 220 -46 566 -46 l309 0 546 -281
c300 -155 570 -295 599 -310 54 -29 82 -29 82 0 0 9 -81 173 -180 364 -98 191
-177 353 -174 360 2 6 23 23 46 36 66 37 205 178 264 267 67 100 106 186 135
295 34 122 34 357 1 478 -74 271 -255 496 -498 621 -94 48 -218 87 -314 100
-87 11 -1111 11 -1215 0z m789 -310 c114 -39 183 -97 237 -200 20 -38 24 -60
24 -135 0 -124 -15 -148 -189 -320 -143 -140 -143 -140 -161 -210 -10 -38 -25
-80 -32 -92 -32 -49 -122 -52 -168 -5 -33 32 -39 60 -31 134 10 103 34 141
176 278 70 69 133 135 139 147 18 36 13 112 -10 149 -61 99 -227 112 -310 24
-21 -22 -49 -71 -69 -120 -37 -93 -68 -120 -134 -120 -32 0 -45 7 -79 40 -39
40 -40 41 -34 101 14 157 158 303 340 345 82 18 223 11 301 -16z m-139 -1090
c50 -24 75 -65 75 -122 0 -138 -180 -188 -257 -72 -41 63 -11 163 59 197 44
22 73 21 123 -3z"/>
<path d="M30450 33275 c-231 -48 -411 -150 -796 -450 -285 -223 -402 -285
-539 -288 -38 -1 -83 2 -98 6 -25 7 -27 6 -18 -10 40 -70 179 -181 256 -204
25 -7 45 -17 45 -21 0 -5 -24 -19 -54 -32 -101 -45 -262 -75 -398 -76 -43 0
-78 -3 -78 -6 0 -3 20 -45 45 -93 149 -289 412 -430 758 -406 217 15 450 82
793 229 185 79 234 96 234 81 0 -10 -40 -84 -95 -176 -30 -50 -55 -95 -55 -99
0 -5 35 2 78 15 42 13 169 49 282 80 113 31 212 58 220 60 13 4 15 -12 15
-108 0 -101 3 -118 27 -169 15 -32 47 -79 72 -106 56 -59 67 -106 67 -264 0
-105 1 -108 23 -108 20 0 27 13 55 95 18 51 43 142 56 201 13 59 29 110 37
115 19 13 79 29 106 29 34 0 80 -27 88 -52 33 -101 -49 -329 -167 -461 -51
-57 -52 -61 -64 -247 l-6 -95 47 50 c129 138 219 301 240 437 4 24 30 90 59
148 275 551 355 928 249 1167 -38 87 -78 131 -183 200 -2 1 7 68 19 148 12 80
21 147 19 149 -2 2 -44 -25 -93 -60 -49 -35 -92 -64 -97 -64 -4 0 -11 15 -14
33 -19 85 -141 277 -223 350 l-21 19 15 -49 c14 -45 15 -185 2 -198 -3 -3 -30
11 -59 30 -128 86 -324 168 -474 200 -86 18 -286 18 -375 0z"/>
<path d="M15235 32751 c-47 -21 -103 -76 -111 -108 -6 -23 -6 -23 -34 7 -24
26 -35 30 -82 30 -100 0 -195 -66 -218 -150 l-11 -40 -37 20 c-20 11 -52 20
-71 20 -86 0 -176 -82 -176 -160 l0 -37 -34 9 c-60 17 -137 5 -184 -28 -60
-43 -107 -136 -107 -212 1 -32 6 -70 13 -86 11 -26 10 -31 -16 -59 -98 -105
-101 -264 -7 -403 17 -26 30 -47 28 -49 -2 -1 -13 -8 -26 -14 -43 -23 -62 -69
-62 -153 0 -163 52 -285 149 -351 38 -25 47 -36 41 -47 -31 -48 12 -170 87
-248 24 -25 44 -57 47 -77 14 -74 103 -155 188 -170 28 -5 39 -14 48 -36 16
-38 113 -127 172 -159 37 -19 48 -31 53 -56 11 -61 65 -152 118 -199 64 -58
115 -84 177 -92 36 -4 50 -11 58 -27 19 -43 104 -125 150 -146 26 -12 75 -36
110 -53 80 -39 179 -42 256 -9 29 14 69 22 100 22 82 0 142 26 205 88 31 31
81 67 111 82 78 38 149 131 150 195 0 11 14 34 32 50 62 58 106 200 93 297 -4
26 -17 68 -29 93 l-23 44 31 63 c30 60 31 68 30 183 0 70 -7 155 -17 205 -38
191 -57 207 -57 48 0 -120 -21 -178 -71 -198 -26 -11 -32 -10 -53 9 -34 32
-83 36 -129 12 -36 -18 -41 -18 -75 -4 -70 29 -177 -3 -241 -71 l-24 -25 -36
18 c-84 42 -187 31 -246 -27 -29 -29 -32 -29 -83 -19 -104 22 -248 -25 -272
-89 -8 -20 -14 -23 -37 -18 -48 11 -107 40 -140 68 -41 34 -95 143 -112 224
-12 56 -16 62 -39 62 l-24 0 4 -84 c3 -46 3 -88 -1 -93 -12 -19 -43 -22 -76
-9 -45 19 -94 95 -149 230 -85 209 -93 277 -36 331 26 25 40 30 93 32 34 2 68
0 75 -5 8 -5 22 -47 32 -93 10 -46 26 -119 35 -161 16 -74 33 -96 51 -67 3 6
14 92 23 192 l16 180 42 14 c96 32 203 172 203 264 0 41 0 41 23 25 12 -9 51
-31 87 -49 56 -27 75 -31 140 -31 78 0 151 25 219 74 l29 20 48 -40 c162 -134
366 -134 517 1 l42 36 38 -30 c54 -44 142 -50 219 -15 107 50 179 139 184 230
2 39 7 53 26 65 116 78 150 187 95 306 -25 56 -98 137 -123 137 -7 0 -22 17
-33 39 -39 75 -115 121 -201 121 -63 0 -108 -18 -141 -57 l-25 -30 -21 23
c-43 48 -106 43 -160 -11 -29 -29 -35 -31 -40 -17 -54 158 -160 241 -319 250
-91 5 -139 -7 -177 -42 l-25 -23 -42 28 c-77 52 -164 63 -235 30z m965 -2175
c0 -57 -31 -80 -158 -121 -126 -40 -248 -60 -326 -53 -61 5 -130 48 -160 98
l-18 32 48 -9 c150 -25 443 6 549 59 66 33 65 33 65 -6z"/>
<path d="M21828 30175 c-489 -80 -838 -478 -1021 -1165 -95 -357 -137 -714
-136 -1159 0 -319 7 -378 50 -465 92 -185 287 -291 557 -303 l123 -6 -6 24
c-11 47 -64 447 -81 614 -26 244 -26 772 -1 938 28 183 83 353 134 409 14 15
20 11 75 -58 147 -183 394 -359 653 -464 247 -101 508 -144 652 -107 l51 14 7
-45 c8 -54 -1 -212 -21 -382 -28 -226 -98 -527 -186 -799 -32 -99 -37 -125
-27 -132 22 -13 118 -24 209 -23 210 1 376 109 478 309 165 326 168 949 6
1633 -157 664 -484 1045 -991 1152 -130 28 -401 36 -525 15z"/>
<path d="M32055 30125 c-150 -22 -248 -68 -328 -155 -53 -57 -113 -167 -138
-252 -7 -27 -17 -48 -22 -48 -4 0 -6 -4 -3 -9 9 -14 -5 -71 -16 -65 -5 3 -4
-3 3 -14 10 -16 10 -26 2 -45 -6 -14 -10 -50 -9 -81 2 -37 -1 -55 -8 -53 -7 2
-10 30 -7 76 l3 72 -22 -18 c-17 -15 -18 -19 -5 -21 10 -2 15 -15 15 -43 0
-32 -3 -39 -20 -39 -11 0 -20 -7 -20 -15 0 -9 -10 -19 -23 -24 -13 -5 -29 -16
-36 -25 -7 -9 -25 -16 -39 -16 -34 0 -101 -32 -102 -47 0 -7 -7 -13 -15 -13
-8 0 -15 -4 -15 -9 0 -18 -33 -42 -48 -36 -8 3 -31 0 -50 -6 l-35 -12 34 -18
34 -18 -50 0 c-60 0 -175 -55 -175 -83 0 -11 8 -18 20 -18 11 0 20 5 20 10 0
6 9 10 20 10 11 0 20 4 20 10 0 5 7 7 15 4 11 -5 9 -11 -11 -29 -13 -12 -38
-28 -54 -35 -17 -7 -30 -16 -30 -21 0 -5 -16 -9 -36 -9 -28 0 -43 -7 -60 -27
l-24 -28 -24 28 -24 27 -33 -17 c-18 -10 -42 -28 -52 -40 -10 -13 -30 -23 -44
-23 -34 0 -102 -32 -103 -47 0 -7 -6 -13 -14 -13 -8 0 -18 -9 -21 -20 -3 -11
-9 -21 -13 -21 -4 -1 -18 -3 -31 -4 -13 -1 -33 -14 -44 -29 -15 -21 -27 -26
-63 -26 -39 0 -49 -5 -89 -46 -34 -34 -45 -53 -45 -77 -1 -26 -8 -37 -37 -55
-32 -21 -38 -22 -51 -8 -9 9 -12 19 -8 23 4 4 10 2 14 -4 5 -8 13 -9 22 -3 13
8 12 10 -2 10 -13 0 -18 8 -18 30 0 27 -2 29 -19 21 -10 -6 -27 -27 -37 -48
-13 -28 -19 -33 -22 -20 -2 10 -7 17 -10 15 -4 -2 -20 -10 -37 -18 -16 -8 -38
-25 -48 -37 -10 -13 -27 -23 -37 -23 -10 0 -31 -7 -46 -15 -16 -8 -37 -15 -46
-15 -10 0 -18 -3 -18 -7 -1 -19 -54 -66 -78 -69 -14 -1 -35 -14 -45 -28 -15
-21 -27 -26 -64 -26 -38 0 -49 -5 -79 -36 -19 -20 -34 -41 -34 -46 0 -5 -9 -6
-20 -3 -14 4 -20 2 -20 -9 0 -8 5 -18 10 -21 6 -3 10 -15 10 -26 0 -10 -4 -19
-10 -19 -5 0 -10 7 -10 15 0 24 -31 31 -46 10 -13 -18 -14 -18 -14 3 0 12 -4
22 -9 22 -12 0 -41 -29 -41 -41 0 -5 -9 -9 -19 -9 -27 0 -81 -30 -104 -57 -11
-14 -30 -23 -47 -23 -22 0 -30 5 -33 23 -2 12 -2 4 0 -18 2 -21 6 -41 7 -43 7
-6 86 21 86 30 0 4 4 8 9 8 18 0 -14 -49 -34 -52 -11 -2 -19 -10 -19 -19 1
-11 -5 -14 -22 -11 -17 3 -23 -1 -27 -19 -2 -13 -4 -4 -5 21 0 25 -5 79 -11
120 -6 42 -8 99 -4 130 4 30 6 64 5 75 -5 36 27 358 48 490 74 451 212 793
409 1008 73 80 107 113 155 148 64 48 23 33 -56 -20 -125 -84 -221 -193 -330
-376 -67 -113 -252 -480 -377 -750 -116 -248 -347 -747 -381 -820 -104 -224
-405 -845 -433 -892 l-19 -33 -42 58 c-52 69 -116 130 -216 203 -72 53 -186
129 -194 129 -2 0 -33 17 -67 38 -99 60 -301 169 -674 362 -77 40 -204 106
-282 147 l-142 74 -36 -53 c-68 -103 -135 -301 -170 -502 -27 -159 -26 -163
58 -242 655 -621 1351 -1082 1767 -1169 82 -17 198 -20 251 -5 57 16 442 417
689 718 41 50 75 90 76 89 1 -1 9 -81 18 -177 9 -97 18 -187 21 -200 2 -14 11
-88 20 -165 l16 -140 -46 -169 c-134 -494 -202 -874 -212 -1186 -6 -204 8
-321 46 -401 l21 -43 -40 -301 c-22 -165 -42 -320 -45 -345 -6 -48 -8 -68 -24
-195 -19 -150 -51 -448 -49 -450 2 -2 686 -5 1520 -8 l1518 -5 26 -32 c15 -17
44 -40 65 -50 37 -20 69 -20 1537 -20 l1499 0 44 23 c56 30 100 98 107 166 l4
49 -1503 2 c-827 1 -1564 3 -1636 4 -73 0 -133 -2 -133 -6 0 -4 -7 -5 -15 -2
-19 8 -20 48 -1 63 10 8 24 7 56 -4 92 -32 116 -16 88 58 -11 29 -32 84 -45
122 -14 39 -29 75 -33 80 -4 6 -15 35 -25 65 -9 30 -23 69 -30 85 -7 17 -27
68 -45 115 -38 104 -43 115 -65 165 -9 22 -19 47 -21 55 -3 15 -27 80 -108
295 -25 66 -46 122 -47 125 -4 13 -13 38 -27 70 -8 19 -14 38 -14 42 1 4 -7
22 -17 39 -11 17 -17 38 -14 45 3 8 0 14 -6 14 -6 0 -11 6 -11 14 0 13 -26 83
-56 153 -8 17 -14 34 -14 37 0 6 -124 335 -140 371 -11 24 -84 228 -85 235 0
3 -13 39 -29 80 -31 81 -37 97 -60 150 -8 19 -33 87 -57 150 -78 214 -90 245
-103 275 -8 17 -26 68 -42 115 -15 47 -34 95 -41 107 -18 28 -17 35 10 50 28
16 37 16 37 1 0 -6 114 -327 254 -712 140 -386 356 -982 481 -1326 124 -344
241 -665 259 -715 19 -49 55 -152 82 -227 27 -76 54 -136 59 -134 14 4 9 26
-30 131 -70 190 -191 522 -297 815 -179 496 -626 1726 -723 1990 -64 177 -68
190 -58 190 4 0 77 -191 162 -425 l154 -425 82 0 c46 0 96 -3 112 -6 27 -5 34
1 108 95 44 55 82 100 85 101 3 0 18 -26 35 -58 18 -35 65 -92 120 -148 72
-73 106 -99 174 -133 46 -22 90 -41 98 -41 9 0 -14 -23 -51 -51 -39 -30 -66
-59 -66 -70 0 -10 -10 -44 -22 -76 -40 -108 -171 -214 -283 -230 -25 -3 -45
-9 -45 -13 0 -4 -18 -28 -41 -54 l-41 -46 277 -763 c153 -419 278 -763 280
-765 1 -1 73 2 161 6 87 5 128 10 89 11 l-70 1 0 312 c0 344 -12 475 -65 730
l-28 137 24 69 c52 150 54 261 10 534 -13 84 -27 174 -30 201 l-6 47 58 0 c57
0 58 1 95 48 93 119 224 241 519 484 442 363 654 558 794 728 211 256 314 489
315 714 l1 96 -68 137 c-37 76 -103 215 -146 308 -142 306 -372 740 -545 1030
-186 312 -427 630 -614 810 -159 154 -275 227 -444 280 -97 30 -102 31 -180
20z m-515 -786 c-10 -23 -10 -23 -5 4 4 19 2 26 -5 22 -5 -3 -10 2 -10 12 0
15 2 16 15 2 12 -12 13 -21 5 -40z m-85 -19 c3 -5 1 -10 -4 -10 -6 0 -11 5
-11 10 0 6 2 10 4 10 3 0 8 -4 11 -10z m92 -42 c-3 -8 -6 -5 -6 6 -1 11 2 17
5 13 3 -3 4 -12 1 -19z m-10 -40 c-3 -8 -6 -5 -6 6 -1 11 2 17 5 13 3 -3 4
-12 1 -19z m-257 -8 c0 -5 -7 -7 -15 -4 -8 4 -15 8 -15 10 0 2 7 4 15 4 8 0
15 -4 15 -10z m-65 -30 c3 -5 1 -10 -4 -10 -6 0 -11 5 -11 10 0 6 2 10 4 10 3
0 8 -4 11 -10z m-97 -60 c-2 -6 -8 -6 -18 0 -13 9 -13 11 0 20 15 10 25 0 18
-20z m-311 -186 c-3 -3 -12 -4 -19 -1 -8 3 -5 6 6 6 11 1 17 -2 13 -5z m-67
-35 c0 -5 -4 -9 -10 -9 -5 0 -10 7 -10 16 0 8 5 12 10 9 6 -3 10 -10 10 -16z
m-160 -53 c0 -3 -4 -8 -10 -11 -5 -3 -10 -1 -10 4 0 6 5 11 10 11 6 0 10 -2
10 -4z m-20 -36 c0 -5 -7 -7 -15 -4 -8 4 -15 8 -15 10 0 2 7 4 15 4 8 0 15 -4
15 -10z m-65 -30 c3 -5 1 -10 -4 -10 -6 0 -11 5 -11 10 0 6 2 10 4 10 3 0 8
-4 11 -10z m-70 -36 c13 -5 14 -8 3 -15 -19 -13 -28 -11 -28 6 0 17 2 18 25 9z
m-295 -174 c0 -5 -4 -10 -10 -10 -5 0 -10 5 -10 10 0 6 5 10 10 10 6 0 10 -4
10 -10z m110 -10 c0 -5 -4 -10 -10 -10 -5 0 -10 5 -10 10 0 6 5 10 10 10 6 0
10 -4 10 -10z m-155 -29 c-3 -6 -11 -8 -17 -5 -6 4 -5 9 3 15 16 10 23 4 14
-10z m-171 -71 c7 -7 0 -10 -20 -10 -16 0 -35 -5 -42 -12 -9 -9 -12 -6 -12 16
0 27 2 28 32 22 18 -3 37 -11 42 -16z m-74 -50 c0 -5 -7 -7 -15 -4 -8 4 -15 8
-15 10 0 2 7 4 15 4 8 0 15 -4 15 -10z m-65 -30 c3 -5 1 -10 -4 -10 -6 0 -11
5 -11 10 0 6 2 10 4 10 3 0 8 -4 11 -10z m-171 -104 c-5 -12 -54 -41 -54 -31
0 7 43 45 52 45 4 0 5 -6 2 -14z m-161 -85 c4 -16 1 -18 -16 -12 -28 10 -34
31 -9 31 11 0 22 -8 25 -19z m-276 -173 c-2 -13 -4 -5 -4 17 -1 22 1 32 4 23
2 -10 2 -28 0 -40z m3403 -173 c58 -55 198 -181 310 -279 113 -99 206 -183
208 -186 1 -4 -35 -35 -80 -70 -109 -83 -461 -437 -617 -620 -68 -80 -130
-152 -139 -160 -29 -30 0 500 68 1230 5 58 12 132 15 165 3 33 8 75 11 94 l5
34 57 -55 c31 -29 104 -99 162 -153z m-3378 66 c2 -17 1 -28 -4 -25 -8 5 -12
54 -4 54 2 0 6 -13 8 -29z m2074 -2679 l142 -387 -34 -3 c-50 -5 -146 46 -236
124 -43 37 -78 70 -78 74 0 4 -12 11 -27 15 -51 12 -100 52 -113 91 -23 68 12
221 83 364 30 61 80 110 111 110 6 0 75 -174 152 -388z m1028 -1951 c10 -11
13 -22 8 -25 -5 -3 -15 1 -22 9 -16 20 -39 19 -62 -2 -17 -15 -18 -15 -18 5 0
35 66 45 94 13z"/>
<path d="M36805 29877 c-120 -47 -215 -166 -215 -269 0 -15 -2 -28 -4 -28 -2
0 -25 10 -52 22 -66 29 -154 29 -211 0 -135 -70 -183 -293 -87 -403 13 -14 9
-18 -33 -34 -90 -34 -161 -94 -201 -170 -23 -44 -27 -61 -26 -140 0 -71 5
-100 22 -138 28 -62 93 -130 189 -199 115 -81 153 -93 303 -92 154 0 244 21
550 127 118 41 245 82 283 91 72 18 184 23 198 9 5 -5 4 -36 -3 -71 -24 -128
28 -269 141 -381 36 -36 87 -77 114 -91 26 -14 47 -30 47 -36 0 -7 -9 -65 -20
-131 -22 -126 -30 -280 -17 -325 5 -21 14 -28 32 -28 30 0 51 38 102 183 47
138 68 174 106 181 83 17 139 1 162 -45 53 -102 -91 -331 -262 -417 -56 -29
-63 -36 -77 -80 -9 -26 -22 -79 -30 -117 -7 -39 -15 -74 -16 -80 -1 -5 -2 -20
-1 -33 1 -22 4 -23 49 -17 125 16 196 39 267 86 107 72 155 142 185 269 16 72
30 93 77 115 21 10 71 33 111 52 82 39 140 91 173 155 29 56 27 146 -5 261
-14 48 -23 94 -20 102 3 8 27 28 54 45 62 40 135 117 154 165 9 21 16 66 16
105 0 91 -39 169 -122 245 l-61 55 34 72 c26 58 34 89 37 148 3 65 1 79 -20
110 -34 51 -115 88 -209 96 l-76 7 -5 91 c-9 177 -78 264 -238 302 -30 7 -76
13 -102 14 -46 0 -47 1 -64 46 -26 67 -67 119 -121 151 -118 69 -320 6 -384
-119 l-20 -39 -47 52 c-55 61 -109 88 -175 89 -81 0 -142 -38 -167 -105 l-11
-30 -25 50 c-32 62 -59 92 -106 116 -42 22 -126 24 -173 6z"/>
<path d="M31531 29690 c0 -8 4 -22 9 -30 12 -18 12 -2 0 25 -6 13 -9 15 -9 5z"/>
<path d="M30935 29200 c-3 -5 1 -10 9 -10 9 0 16 5 16 10 0 6 -4 10 -9 10 -6
0 -13 -4 -16 -10z"/>
<path d="M25043 29133 c31 -2 83 -2 115 0 31 2 5 3 -58 3 -63 0 -89 -1 -57 -3z"/>
<path d="M25418 29133 c72 -2 192 -2 265 0 72 1 13 3 -133 3 -146 0 -205 -2
-132 -3z"/>
<path d="M25938 29133 c28 -2 76 -2 105 0 28 2 5 3 -53 3 -58 0 -81 -1 -52 -3z"/>
<path d="M24842 29107 c-29 -35 -13 -95 28 -104 30 -5 30 -7 30 -69 l0 -64
645 0 645 0 0 65 c0 56 2 65 18 65 48 0 77 65 44 98 -19 19 -40 19 -710 20
-531 1 -692 -2 -700 -11z"/>
<path d="M30848 29066 c-31 -32 -36 -56 -12 -56 25 0 46 28 42 57 l-3 28 -27
-29z"/>
<path d="M30535 28960 c-3 -5 1 -10 9 -10 9 0 16 5 16 10 0 6 -4 10 -9 10 -6
0 -13 -4 -16 -10z"/>
<path d="M24882 28852 c-33 -2 -45 -8 -53 -25 -15 -33 5 -76 41 -88 28 -10 30
-14 30 -65 l0 -54 629 0 c346 0 636 -3 645 -6 14 -5 16 3 16 54 0 58 1 60 30
71 37 12 56 54 41 88 -6 13 -14 23 -18 23 -172 3 -1331 4 -1361 2z"/>
<path d="M24830 28574 c-14 -37 7 -77 47 -88 24 -8 34 -17 39 -39 3 -17 24
-49 46 -73 52 -56 109 -74 239 -74 92 0 97 -1 113 -25 l16 -25 219 0 218 0 13
25 c13 24 17 25 110 25 160 0 230 32 275 125 18 35 34 55 47 57 12 2 30 15 41
30 17 23 19 33 11 55 l-9 28 -708 3 -707 2 -10 -26z"/>
<path d="M29815 28560 c-3 -5 1 -10 9 -10 9 0 16 5 16 10 0 6 -4 10 -9 10 -6
0 -13 -4 -16 -10z"/>
<path d="M14270 27560 c-14 -4 -151 -105 -305 -225 -613 -478 -725 -566 -725
-572 0 -7 140 -157 151 -161 6 -2 853 651 940 725 15 12 33 -7 169 -181 l152
-195 45 31 c24 18 48 37 53 43 7 8 -49 88 -176 251 -102 131 -195 249 -207
260 -26 26 -62 35 -97 24z"/>
<path d="M20057 26845 c-61 -17 -143 -57 -182 -89 l-30 -25 28 -1 c77 -1 241
49 352 108 l40 21 -80 0 c-44 -1 -102 -7 -128 -14z"/>
<path d="M20416 26848 c-2 -7 -10 -33 -17 -58 -7 -25 -13 -49 -14 -55 0 -5 -6
-14 -13 -18 -7 -5 -10 -12 -7 -17 3 -4 -2 -11 -11 -14 -9 -3 -14 -13 -11 -20
3 -8 -2 -20 -11 -28 -15 -12 -16 -11 -3 7 7 11 -1 4 -18 -15 -17 -19 -31 -37
-31 -41 0 -4 -23 -24 -51 -44 -37 -27 -49 -41 -44 -53 5 -13 3 -14 -6 -5 -9 9
-21 5 -54 -20 -24 -18 -51 -38 -61 -45 -11 -7 -13 -10 -5 -6 9 5 12 3 7 -5 -4
-6 -12 -9 -17 -5 -5 3 -15 1 -22 -4 -28 -22 -206 -95 -295 -120 l-97 -28 -20
-50 c-19 -46 -20 -74 -22 -410 l-1 -362 -56 -203 c-71 -262 -106 -407 -106
-441 0 -22 10 -35 53 -62 78 -52 164 -76 309 -88 71 -6 130 -9 132 -7 3 2 -2
56 -9 119 -7 63 -16 147 -20 185 -3 39 -20 191 -36 338 -33 306 -35 347 -14
386 8 16 11 32 7 36 -4 5 -2 5 4 2 6 -3 24 7 40 24 50 53 95 59 414 59 l287 0
6 122 c10 171 9 281 -3 421 -12 131 -37 275 -51 293 -5 6 -7 13 -4 16 9 9 -36
98 -56 111 -37 23 -19 48 66 91 l50 25 -93 1 c-66 0 -94 -4 -96 -12z m-281
-430 c5 4 5 2 2 -4 -3 -6 -16 -10 -29 -8 -31 3 -30 3 -23 14 4 7 12 7 24 0 10
-5 22 -6 26 -2z"/>
<path d="M23480 26855 c0 -2 17 -13 38 -24 20 -10 48 -31 61 -45 l24 -25 -31
-26 c-18 -15 -29 -32 -25 -40 3 -8 0 -15 -7 -15 -7 0 -10 -7 -6 -16 3 -8 2
-13 -3 -10 -11 7 -34 -81 -25 -96 4 -6 3 -8 -3 -5 -21 13 -38 -203 -38 -485 0
-152 3 -280 7 -283 4 -4 198 -10 432 -14 l424 -6 39 -31 c90 -73 96 -102 63
-337 -36 -260 -90 -691 -86 -694 6 -6 180 68 256 108 103 56 113 66 106 108
-3 21 4 72 19 130 62 246 85 465 85 806 0 229 -11 306 -55 402 -15 34 -25 74
-25 102 -1 164 -122 357 -275 438 -119 62 -128 63 -572 63 -222 0 -403 -2
-403 -5z"/>
<path d="M15270 26308 c-14 -11 -36 -29 -48 -39 l-24 -18 148 -191 c82 -104
150 -193 151 -197 1 -5 -131 -111 -294 -238 -163 -126 -310 -242 -326 -256
l-30 -25 25 -45 c14 -24 36 -72 50 -107 l25 -62 74 58 c41 32 200 156 354 276
154 120 292 231 308 247 20 22 27 39 27 70 0 37 -15 60 -197 294 -109 140
-202 254 -208 254 -5 0 -21 -9 -35 -21z"/>
<path d="M40349 26199 c-63 -37 -73 -66 -82 -234 -14 -257 -20 -3071 -6 -3140
6 -33 29 -98 52 -145 111 -235 391 -357 637 -276 61 19 73 21 77 8 11 -26 -6
-506 -21 -622 -49 -367 -160 -784 -276 -1037 -11 -24 -20 -45 -20 -48 0 -10
-98 -207 -145 -290 -69 -121 -173 -280 -248 -379 -71 -94 -264 -296 -301 -315
-24 -13 -28 -11 -98 60 -92 94 -128 124 -203 173 -33 22 -62 42 -65 45 -3 3
-18 13 -35 21 -16 8 -33 19 -37 25 -4 5 -8 6 -8 2 0 -5 -15 1 -33 12 -19 11
-36 18 -39 16 -3 -3 -11 1 -18 10 -7 8 -20 15 -30 15 -41 0 -26 29 42 86 177
148 295 357 350 623 29 141 35 412 14 616 -20 190 -22 200 -41 182 -20 -20
-330 -122 -491 -161 -155 -38 -330 -68 -499 -88 -140 -16 -520 -15 -650 1
-242 30 -482 92 -684 178 l-113 48 -32 61 -31 62 -105 -40 c-135 -51 -183 -69
-305 -113 -55 -20 -154 -57 -220 -81 -143 -54 -209 -63 -430 -63 -91 0 -169
-2 -173 -4 -4 -3 -90 -8 -192 -11 -102 -4 -207 -9 -235 -11 -27 -2 -122 -7
-210 -10 -258 -10 -429 -24 -548 -45 -62 -10 -206 -29 -321 -40 -336 -33 -438
-59 -560 -141 -166 -111 -247 -292 -267 -594 -36 -561 -256 -1662 -818 -4083
-37 -159 -39 -165 -81 -206 -23 -24 -54 -50 -68 -57 -199 -101 -443 -316 -531
-467 -23 -39 -44 -72 -46 -72 -2 0 7 29 21 65 27 73 49 196 59 325 11 143 -24
370 -56 370 -5 0 -9 29 -9 64 0 61 1 64 28 70 15 4 62 16 105 28 l78 20 -5 67
c-3 36 -8 111 -11 166 -23 405 -86 947 -196 1700 -191 1306 -183 1238 -183
1550 -1 344 10 498 94 1265 52 477 85 956 78 1137 l-3 83 -157 0 -156 0 -6
-27 c-3 -16 -39 -226 -80 -468 -78 -457 -159 -932 -252 -1480 -60 -353 -87
-512 -198 -1155 -42 -239 -127 -737 -190 -1106 l-115 -671 39 -239 c40 -240
103 -665 116 -782 4 -35 12 -69 19 -76 7 -6 49 -18 94 -26 45 -7 84 -16 85
-19 2 -3 7 -31 10 -62 l7 -56 -59 -6 c-190 -17 -299 -145 -337 -395 -23 -153
-127 -358 -296 -586 l-80 -107 -54 -319 c-30 -175 -55 -321 -55 -325 0 -13
150 -76 215 -90 178 -38 378 0 525 100 l64 43 29 -49 c76 -134 211 -210 407
-229 52 -5 142 -14 199 -21 170 -18 334 10 448 77 65 38 110 80 155 147 88
130 366 405 502 497 74 50 139 71 177 57 59 -23 260 58 347 139 42 39 58 63
77 117 27 74 60 270 70 412 3 50 8 109 11 132 3 34 0 47 -16 63 -11 11 -20 21
-20 23 0 1 61 2 136 2 l137 0 27 160 c46 267 119 541 225 841 78 222 279 722
282 704 6 -33 46 -542 77 -980 39 -535 45 -480 -66 -600 -142 -153 -260 -361
-298 -525 -58 -247 -217 -532 -403 -720 -35 -36 -71 -86 -90 -125 -29 -59 -32
-74 -32 -162 l0 -97 43 -44 c58 -59 135 -95 231 -109 75 -11 88 -10 266 25
202 40 285 68 381 129 101 63 162 140 194 243 23 75 43 125 50 125 4 0 11 -19
14 -43 16 -104 95 -220 178 -261 91 -45 173 -31 253 45 111 105 158 285 120
462 -19 92 -55 166 -104 220 l-41 44 86 74 c131 113 222 177 352 251 328 186
801 335 1204 378 102 11 107 11 149 -11 61 -32 150 -32 203 -1 34 20 47 22
105 17 348 -34 767 -150 1086 -301 204 -96 415 -240 570 -386 77 -73 79 -77
66 -100 -28 -44 -59 -114 -72 -159 -17 -59 -17 -211 0 -279 30 -120 111 -230
196 -266 79 -33 190 -1 255 72 61 70 110 202 110 298 0 44 1 46 30 46 25 0 30
-4 30 -25 0 -14 7 -60 16 -102 48 -234 213 -357 372 -277 118 59 192 209 192
389 0 136 -39 252 -111 330 -74 81 -150 107 -234 80 -40 -12 -52 -12 -58 -3
-4 7 -31 52 -59 101 -84 142 -204 293 -343 433 -489 490 -1148 772 -1942 829
l-93 7 0 372 0 371 97 0 97 0 31 80 c18 44 49 123 69 176 l37 97 69 22 c192
62 349 241 381 436 l13 74 1095 2 1096 3 44 25 c78 44 113 149 77 234 -16 38
-67 81 -109 91 -15 4 -30 11 -33 16 -3 5 27 46 67 91 203 234 424 565 581 868
528 1023 712 2284 508 3480 -44 255 -120 565 -189 766 -20 57 -21 85 -24 919
-2 473 -6 930 -8 1016 -4 152 -5 156 -32 192 -52 68 -41 67 -494 67 -395 0
-409 -1 -444 -21z m-4142 -7820 c30 -192 192 -378 383 -439 63 -20 70 -25 84
-61 9 -22 16 -44 16 -49 0 -5 -24 -7 -52 -5 -29 3 -222 12 -429 21 -346 14
-379 14 -408 0 -40 -21 -61 -63 -61 -121 0 -54 21 -95 61 -119 29 -17 59 -16
549 9 52 2 168 8 257 11 l162 6 15 -36 16 -37 82 1 c46 1 89 1 96 1 9 -1 12
-82 12 -370 l0 -369 -97 -6 c-408 -29 -800 -122 -1124 -267 -48 -22 -91 -39
-96 -39 -6 0 -20 82 -31 183 -56 475 -66 704 -57 1257 4 245 7 452 7 460 -1
40 -3 40 305 40 l299 0 11 -71z m-4097 -2843 c-63 -81 -213 -224 -310 -297
-91 -68 -210 -142 -210 -130 0 14 88 129 133 174 67 66 124 110 283 216 82 55
150 100 152 100 1 1 -20 -28 -48 -63z"/>
<path d="M12305 26038 c-99 -77 -256 -200 -350 -273 -93 -73 -178 -142 -189
-153 -11 -13 -19 -38 -20 -60 0 -36 19 -64 284 -403 156 -200 450 -578 654
-839 203 -261 383 -490 399 -507 26 -28 38 -33 76 -33 49 0 34 -10 319 216 46
36 86 63 89 60 3 -3 0 -45 -7 -93 -14 -97 -26 -628 -16 -696 l6 -42 333 2
c182 1 943 2 1690 3 l1358 0 -6 58 c-31 273 -121 959 -141 1071 l-6 35 -17
-40 c-24 -52 -64 -99 -98 -113 -16 -6 -332 -49 -703 -96 -371 -47 -722 -92
-780 -100 -609 -81 -1088 -25 -1343 158 l-47 34 285 222 286 223 -43 27 c-41
26 -91 74 -120 114 -12 16 -52 -13 -448 -322 -239 -187 -438 -337 -441 -333
-3 4 -263 337 -578 740 l-571 733 28 23 c15 12 127 100 249 194 l221 173 -51
46 c-29 26 -68 62 -87 79 l-35 33 -180 -141z"/>
<path d="M18731 25175 c35 -99 21 -157 -70 -308 -60 -100 -81 -154 -81 -211 1
-78 57 -198 135 -291 l34 -40 -23 75 c-49 154 -42 240 29 356 47 79 65 142 65
233 -1 84 -15 133 -55 191 -42 61 -56 58 -34 -5z"/>
<path d="M26776 25188 c-9 -13 -16 -43 -16 -70 l0 -48 -125 0 c-196 0 -218
-18 -254 -206 -12 -61 -21 -114 -21 -117 0 -4 475 -7 1055 -7 580 0 1055 -3
1055 -6 0 -3 -65 -329 -144 -724 -154 -767 -158 -779 -222 -813 l-27 -14 36
-7 c72 -13 249 -5 292 13 56 24 92 71 101 128 4 25 4 409 1 852 -6 764 -7 806
-25 830 -44 59 -63 66 -210 71 -152 6 -139 -3 -141 83 -1 45 -33 67 -69 48
-17 -9 -22 -23 -24 -69 l-3 -57 -110 0 -110 0 -3 55 c-2 37 -8 59 -19 68 -41
30 -73 0 -73 -69 l0 -49 -110 0 -110 0 0 43 c0 48 -22 87 -50 87 -33 0 -50
-28 -50 -81 l0 -49 -110 0 -110 0 0 48 c0 35 -5 54 -18 65 -42 38 -82 5 -82
-65 l0 -45 -46 -7 c-26 -3 -75 -6 -110 -6 l-64 0 0 53 c0 40 -5 58 -18 70 -25
23 -48 21 -66 -5z"/>
<path d="M18436 24953 c23 -54 13 -101 -41 -192 -52 -90 -62 -129 -46 -188 11
-39 89 -168 97 -160 2 2 -3 24 -12 48 -28 78 -21 146 22 229 34 64 39 83 39
139 0 71 -23 134 -56 151 -17 10 -17 8 -3 -27z"/>
<path d="M19004 24975 c31 -79 24 -122 -39 -226 -46 -75 -56 -138 -31 -203 17
-45 74 -131 81 -124 3 2 -2 26 -10 53 -24 79 -19 125 21 202 48 89 58 187 26
249 -23 45 -62 85 -48 49z"/>
<path d="M26741 24432 l-123 -36 6 -65 c4 -36 9 -67 11 -69 2 -3 40 4 85 16
66 16 80 17 80 6 0 -15 -137 -717 -146 -746 -5 -16 3 -18 80 -18 72 0 85 3 90
18 3 9 44 213 91 452 48 239 89 445 92 458 5 21 3 22 -68 21 -53 -1 -110 -12
-198 -37z"/>
<path d="M27425 24456 c-136 -43 -223 -129 -244 -243 -13 -66 0 -113 46 -164
20 -22 34 -41 32 -43 -2 -2 -22 -13 -44 -24 -22 -12 -49 -29 -61 -39 -69 -59
-114 -179 -95 -251 33 -121 137 -182 310 -182 228 0 393 117 417 293 10 72
-24 139 -95 189 l-22 16 33 20 c113 70 168 210 122 308 -24 50 -86 101 -145
118 -63 19 -198 20 -254 2z m179 -140 c96 -40 85 -164 -19 -223 -31 -17 -56
-23 -108 -23 -66 0 -71 2 -104 35 -33 33 -35 39 -30 81 6 58 31 93 87 122 51
26 124 29 174 8z m-53 -410 c113 -54 74 -200 -63 -241 -172 -51 -307 41 -243
165 44 85 205 125 306 76z"/>
<path d="M18150 24223 l0 -38 -112 0 c-106 0 -116 -2 -166 -29 -60 -33 -101
-76 -134 -139 -20 -37 -23 -56 -23 -157 1 -103 3 -121 27 -170 79 -167 262
-289 412 -274 53 5 54 4 75 -30 32 -52 124 -131 185 -160 81 -39 127 -45 304
-46 139 0 172 3 224 21 172 58 295 205 318 379 5 41 10 211 10 378 l0 302
-560 0 -560 0 0 -37z m-37 -164 l37 -10 0 -228 c0 -126 3 -243 7 -261 l6 -33
-44 7 c-251 39 -392 366 -216 500 55 42 112 49 210 25z"/>
<path d="M32608 23433 c28 -2 76 -2 105 0 28 2 5 3 -53 3 -58 0 -81 -1 -52 -3z"/>
<path d="M32878 23433 c28 -2 76 -2 105 0 28 2 5 3 -53 3 -58 0 -81 -1 -52 -3z"/>
<path d="M33148 23433 c28 -2 76 -2 105 0 28 2 5 3 -53 3 -58 0 -81 -1 -52 -3z"/>
<path d="M33418 23433 c28 -2 76 -2 105 0 28 2 5 3 -53 3 -58 0 -81 -1 -52 -3z"/>
<path d="M33688 23433 c28 -2 76 -2 105 0 28 2 5 3 -53 3 -58 0 -81 -1 -52 -3z"/>
<path d="M20072 23354 c-1 -16 4 -53 9 -81 8 -40 15 -53 28 -53 16 0 16 4 1
63 -8 34 -21 71 -27 81 -9 17 -11 16 -11 -10z"/>
<path d="M24142 23368 c-1 -10 -6 -18 -12 -18 -5 0 -10 -14 -10 -30 0 -17 -7
-46 -14 -65 -14 -33 -14 -35 4 -35 24 0 43 62 37 123 -2 23 -4 34 -5 25z"/>
<path d="M13650 22569 c0 -6 9 -45 19 -87 15 -61 20 -130 25 -327 7 -297 23
-477 107 -1139 66 -530 95 -886 86 -1086 -8 -190 -31 -355 -143 -1039 -101
-620 -153 -963 -189 -1251 -9 -69 -18 -141 -20 -160 -15 -112 -46 -455 -56
-615 -9 -142 -9 -189 0 -194 6 -4 45 -15 85 -25 l73 -17 7 -46 c9 -68 7 -143
-4 -143 -17 0 -41 -59 -56 -138 -20 -104 -19 -337 2 -439 39 -191 72 -235 246
-335 287 -166 366 -239 519 -480 127 -201 193 -270 311 -327 115 -56 199 -74
338 -74 235 0 409 85 505 247 44 74 44 111 4 195 -24 52 -59 95 -172 210 -161
165 -180 187 -258 291 -113 151 -229 368 -229 427 0 46 -28 143 -61 210 -59
121 -190 200 -319 191 l-51 -3 6 55 c18 170 5 150 111 170 l61 12 17 122 c74
533 153 962 291 1576 35 157 104 465 154 685 144 643 193 903 276 1450 25 164
45 302 45 305 1 3 16 -40 34 -95 18 -55 69 -190 113 -300 95 -236 128 -336
148 -452 20 -116 19 -159 -10 -331 -14 -81 -29 -194 -34 -252 -9 -100 -6 -950
4 -1035 3 -22 7 -276 10 -565 3 -400 1 -573 -10 -725 -22 -301 -22 -285 5
-305 25 -19 85 -40 113 -40 9 0 21 -9 27 -19 16 -30 12 -138 -5 -165 -40 -61
-63 -297 -46 -475 25 -263 80 -375 213 -437 62 -29 66 -29 248 -29 117 -1 201
-5 228 -13 126 -37 299 -131 467 -252 44 -31 107 -71 140 -88 135 -67 336
-109 464 -96 l63 7 -6 31 c-3 17 -28 180 -56 361 -28 182 -53 340 -55 352 -3
13 -26 34 -60 53 -153 87 -320 243 -372 345 -47 93 -114 186 -160 223 -72 56
-117 72 -219 79 l-97 6 6 65 c4 36 8 66 9 68 2 1 23 3 48 5 25 1 50 6 56 11 6
5 12 39 13 76 3 163 40 569 87 967 34 288 153 1185 174 1311 9 55 2 114 -80
645 -49 321 -96 629 -104 684 -9 55 -70 451 -136 880 -66 429 -136 884 -156
1010 -19 127 -37 242 -40 258 l-6 27 -1374 0 c-980 0 -1374 -3 -1374 -11z"/>
<path d="M28866 22498 c-20 -250 -37 -601 -48 -976 -18 -617 4 -1227 62 -1752
22 -199 32 -271 139 -1065 79 -589 131 -1014 161 -1320 21 -207 50 -590 50
-651 0 -31 2 -32 58 -40 l57 -9 3 -41 3 -41 -111 -8 c-93 -6 -119 -11 -169
-36 -97 -48 -182 -146 -247 -283 -70 -148 -288 -333 -539 -459 -49 -24 -152
-66 -229 -93 -127 -43 -144 -52 -198 -102 -72 -68 -107 -124 -115 -190 -5 -43
-1 -60 25 -117 79 -168 268 -268 537 -284 126 -8 217 2 324 35 123 38 194 74
322 165 231 164 399 250 539 275 59 10 98 11 187 2 87 -8 126 -8 172 2 l60 12
6 52 c3 28 19 227 35 441 17 215 37 469 45 565 9 96 33 400 55 675 22 275 49
610 60 745 10 135 44 557 75 939 56 692 56 694 39 775 -32 154 -17 328 43 499
26 77 24 53 102 1032 39 476 35 438 71 890 17 209 31 395 33 413 l3 32 -802 0
-802 0 -6 -82z"/>
<path d="M23668 22221 c-280 -375 -1245 -549 -2168 -390 -392 68 -782 219
-941 366 l-26 23 -21 -92 c-49 -213 -56 -284 -56 -523 0 -260 12 -337 79 -504
19 -49 35 -91 35 -93 0 -3 -46 -8 -102 -12 -350 -23 -669 -166 -913 -411 -204
-205 -343 -467 -389 -735 -9 -51 -16 -114 -16 -139 0 -78 -6 -88 -56 -94 -100
-11 -173 -100 -159 -196 9 -61 46 -116 95 -141 39 -20 55 -20 1107 -20 l1068
0 17 -79 c35 -173 135 -304 298 -393 l45 -25 13 -149 c7 -82 32 -333 57 -559
24 -225 42 -411 40 -413 -2 -3 -57 -13 -121 -23 -827 -135 -1526 -580 -1901
-1210 l-57 -96 -33 13 c-180 76 -367 -149 -350 -421 12 -194 102 -341 230
-376 92 -25 202 32 263 136 33 56 64 167 64 227 0 46 1 48 30 48 26 0 30 -4
35 -37 28 -179 56 -245 134 -316 159 -142 357 -38 415 220 30 133 13 267 -48
379 l-35 63 82 77 c250 233 530 390 927 521 108 35 371 103 401 103 10 0 19
-11 23 -25 3 -13 8 -149 11 -302 5 -256 -5 -522 -24 -679 -6 -50 -5 -64 6 -64
9 0 11 -11 7 -42 -3 -24 -8 -131 -12 -238 -7 -187 -6 -195 14 -220 39 -48 74
-105 74 -122 0 -9 -16 -38 -36 -63 -31 -41 -39 -63 -60 -174 -102 -532 -62
-845 136 -1043 55 -55 76 -69 125 -83 73 -22 210 -17 248 8 41 27 141 187 238
383 72 145 93 197 104 260 29 162 13 393 -41 600 -31 121 -30 149 6 220 38 75
38 96 5 392 -6 52 -5 62 7 62 9 0 21 7 28 15 11 13 8 40 -15 153 -49 244 -45
610 10 901 8 41 17 76 19 78 5 6 232 -40 317 -64 l57 -15 102 -297 c275 -803
251 -723 239 -788 -6 -32 -9 -98 -7 -148 4 -72 10 -101 32 -144 16 -30 55
-140 88 -245 33 -105 67 -204 77 -221 21 -36 50 -42 81 -17 27 22 38 82 39
215 1 89 9 111 51 132 81 42 189 -4 325 -140 132 -131 221 -249 244 -325 40
-128 130 -218 262 -263 57 -19 83 -21 242 -20 194 2 255 13 337 61 130 74 172
187 116 307 -35 75 -68 108 -185 187 -186 126 -379 336 -467 508 -15 30 -40
73 -55 96 -25 37 -27 47 -22 97 5 53 7 57 32 57 26 0 27 -3 38 -86 24 -176
117 -303 241 -329 87 -18 198 49 255 152 76 140 77 355 3 501 -44 87 -139 161
-208 162 -23 0 -34 13 -79 86 -192 319 -503 621 -842 819 -84 49 -85 51 -91
95 -3 25 -11 340 -16 700 -10 635 -19 878 -41 1045 -5 44 -12 101 -16 128 l-6
47 796 0 c539 0 805 3 824 11 85 32 135 148 102 236 -22 60 -99 113 -163 113
l-34 0 -7 83 c-41 500 -326 921 -775 1147 -177 89 -355 136 -557 147 l-114 6
5 26 c30 145 34 450 10 659 -17 152 -52 348 -86 490 l-23 93 -37 -50z m361
-5905 c14 -14 19 -26 13 -26 -6 0 -26 -20 -45 -45 l-34 -44 -22 73 c-12 40
-25 91 -28 112 l-6 39 49 -42 c27 -22 60 -53 73 -67z"/>
<path d="M8621 18201 c-11 -11 -22 -17 -25 -13 -3 3 -6 -5 -5 -19 1 -23 -17
-80 -65 -204 -28 -71 -66 -195 -66 -212 0 -7 -3 -13 -8 -13 -4 0 -16 -29 -26
-65 -10 -36 -22 -65 -27 -65 -5 0 -6 -6 -3 -14 3 -8 -1 -28 -10 -44 -15 -28
-74 -200 -81 -233 -2 -8 -11 -33 -21 -55 -9 -21 -19 -48 -21 -59 -2 -11 -10
-36 -18 -56 -7 -20 -11 -39 -8 -43 4 -3 1 -6 -6 -6 -7 0 -11 -6 -8 -14 3 -7
-1 -23 -9 -35 -8 -11 -12 -21 -8 -21 3 0 2 -6 -3 -12 -11 -15 -48 -130 -45
-140 1 -5 -2 -8 -6 -8 -4 0 -8 -9 -9 -19 -1 -11 -11 -38 -22 -62 -24 -48 -25
-52 -12 -45 5 4 0 -12 -11 -35 -11 -23 -21 -49 -23 -58 -7 -38 -11 -46 -23
-60 -7 -7 -11 -20 -8 -27 3 -7 1 -16 -5 -20 -5 -3 -7 -14 -4 -25 4 -11 2 -19
-5 -19 -6 0 -8 -4 -5 -10 3 -5 2 -10 -3 -10 -8 0 -21 -40 -27 -85 -3 -15 -14
-45 -36 -90 -26 -56 -82 -235 -75 -242 5 -5 361 36 463 54 17 2 33 12 36 21 3
10 55 163 117 342 61 179 144 422 185 540 40 118 94 276 119 350 25 74 46 136
46 137 0 2 5 3 11 3 13 0 2 -56 -17 -86 -8 -11 -16 -34 -18 -50 -4 -29 -47
-155 -56 -164 -3 -3 -5 -9 -5 -15 -2 -27 -38 -125 -46 -125 -6 0 -8 -4 -5 -9
3 -5 -1 -28 -10 -52 -9 -24 -17 -48 -18 -54 -13 -48 -19 -65 -25 -65 -4 0 -8
-7 -8 -15 0 -22 -22 -93 -47 -149 -11 -27 -20 -56 -18 -64 2 -8 -1 -11 -6 -8
-5 3 -9 -5 -9 -18 0 -13 -8 -38 -16 -55 -9 -17 -11 -28 -5 -25 6 4 4 -3 -5
-17 -9 -13 -17 -34 -17 -46 0 -13 -4 -23 -10 -23 -5 0 -10 -11 -10 -24 0 -14
-4 -27 -9 -30 -5 -4 -12 -24 -16 -46 -4 -25 -11 -38 -18 -33 -6 4 -8 0 -4 -10
3 -9 2 -19 -4 -23 -6 -3 -8 -12 -6 -18 3 -7 -1 -26 -7 -42 -15 -33 -36 -97
-36 -107 0 -11 79 -8 254 9 155 15 165 15 197 -2 19 -10 56 -21 82 -24 l48 -5
27 -80 c15 -45 42 -104 60 -132 49 -77 150 -166 228 -203 111 -52 169 -60 461
-60 l262 0 52 -75 52 -75 411 2 411 3 22 285 c12 157 26 339 32 405 6 66 11
150 11 187 l0 68 -1077 2 c-880 3 -1073 5 -1049 16 22 10 252 12 1081 12
l1054 0 5 52 c7 62 32 363 41 496 4 51 3 92 -2 91 -4 -1 -503 -1 -1107 0 -880
1 -1098 4 -1088 14 10 9 251 13 1110 17 l1097 5 22 250 c12 138 22 288 22 335
l1 85 -1112 -2 c-1039 -3 -1225 1 -1091 23 37 6 42 10 52 46 7 22 10 52 6 67
-5 24 -16 30 -98 57 l-92 31 3 41 c6 76 -49 142 -119 142 -25 0 -46 -7 -58
-19z"/>
<path d="M8480 17939 c0 -3 -32 -99 -70 -214 -39 -114 -68 -210 -66 -212 2 -2
36 91 75 208 39 117 69 214 66 217 -3 3 -5 3 -5 1z"/>
<path d="M8990 17850 c0 -5 5 -10 10 -10 6 0 10 5 10 10 0 6 -4 10 -10 10 -5
0 -10 -4 -10 -10z"/>
<path d="M9215 17850 c-16 -4 410 -8 948 -9 642 -1 977 2 977 9 0 11 -1877 11
-1925 0z"/>
<path d="M12130 17848 c0 -4 16 -8 35 -8 19 0 35 2 35 4 0 2 -16 6 -35 8 -19
2 -35 0 -35 -4z"/>
<path d="M12124 17809 c-4 -7 -114 -640 -114 -657 0 -8 65 -12 200 -14 l200
-3 0 178 0 177 44 0 c103 0 184 114 156 220 -13 49 -75 113 -99 102 -9 -4 -99
-5 -199 -2 -101 3 -186 2 -188 -1z"/>
<path d="M8271 17319 c-29 -83 -51 -153 -49 -155 3 -2 28 64 56 148 29 83 51
153 49 155 -3 2 -28 -65 -56 -148z"/>
<path d="M8146 16954 c-36 -109 -64 -199 -62 -201 2 -3 34 85 70 193 36 109
64 199 62 201 -2 3 -34 -85 -70 -193z"/>
<path d="M12502 17118 c2 -7 -4 -11 -12 -10 -8 2 -121 3 -250 3 l-235 -1 -8
-37 c-6 -29 -58 -331 -100 -580 l-4 -23 258 0 259 0 0 159 0 158 50 5 c57 6
111 41 137 91 23 44 22 124 -2 166 -21 35 -97 92 -93 69z"/>
<path d="M8021 16589 c-28 -84 -49 -154 -47 -156 2 -2 27 64 55 148 28 84 49
154 47 156 -2 2 -27 -64 -55 -148z"/>
<path d="M12198 16443 c-281 -3 -307 -5 -312 -21 -5 -18 -32 -169 -91 -517
-19 -115 -38 -223 -41 -239 l-6 -29 103 6 c265 15 467 172 535 413 l17 62 58
4 c48 4 65 10 90 34 56 53 77 117 59 183 -13 48 -57 104 -76 97 -8 -3 -14 -1
-14 4 0 6 -3 9 -7 8 -5 -2 -146 -4 -315 -5z"/>
<path d="M7901 16239 c-33 -101 -59 -184 -57 -186 2 -2 31 78 65 178 34 100
60 184 57 186 -2 2 -31 -78 -65 -178z"/>
<path d="M40735 13635 c-49 -7 -91 -14 -92 -14 -2 -1 6 -25 17 -53 23 -62 23
-58 9 -58 -5 0 -8 3 -6 8 2 4 -4 25 -14 47 l-19 40 3 -50 2 -51 -72 -17 -71
-18 -76 31 c-93 37 -108 37 -182 4 -90 -39 -94 -45 -94 -130 l0 -73 -97 5 -98
6 -32 -55 -33 -55 0 -184 c0 -172 2 -185 23 -223 l23 -40 97 0 97 0 0 -81 0
-81 87 -38 86 -39 93 33 c96 34 96 34 197 5 13 -4 17 -17 17 -59 0 -30 4 -56
9 -60 16 -9 223 -36 240 -30 9 3 32 25 51 50 l35 44 100 0 100 0 38 -50 c42
-56 41 -55 192 -36 l90 12 3 58 c2 31 4 57 5 57 1 0 32 9 69 19 l67 19 83 -34
c95 -40 108 -40 208 9 l65 32 3 82 3 83 47 -6 c26 -3 64 -7 84 -9 52 -7 64 0
98 60 l30 52 -3 179 c-3 177 -3 180 -31 228 l-29 49 -94 -7 -93 -6 0 75 c0 42
-4 74 -9 71 -5 -3 -8 1 -7 10 1 11 -24 27 -76 50 l-77 35 -96 -36 c-52 -20
-100 -33 -107 -29 -6 4 -41 15 -77 25 -36 9 -58 18 -48 18 13 1 17 10 17 42 0
27 -4 38 -11 33 -7 -4 -9 0 -5 14 6 18 0 21 -81 32 -48 6 -100 13 -114 16 -23
4 -34 -3 -69 -45 l-43 -51 -108 0 -107 0 -37 50 c-41 56 -36 55 -180 35z m721
-102 c-8 -15 -15 -25 -16 -21 0 12 23 58 27 54 3 -2 -2 -17 -11 -33z m405
-190 c13 -16 12 -17 -3 -4 -17 13 -22 21 -14 21 2 0 10 -8 17 -17z m-1631 -6
c0 -2 -10 -12 -22 -23 l-23 -19 19 23 c18 21 26 27 26 19z m1681 -34 c13 -16
12 -17 -3 -4 -10 7 -18 15 -18 17 0 8 8 3 21 -13z m-812 3 c-2 -2 -49 -6 -104
-9 -58 -3 -81 -2 -55 3 48 7 166 12 159 6z m69 -13 c-10 -2 -28 -2 -40 0 -13
2 -5 4 17 4 22 1 32 -1 23 -4z m116 -23 c9 -9 -4 -6 -79 14 -11 3 0 3 25 0 25
-3 49 -9 54 -14z m96 -45 c0 -3 -18 4 -40 15 -22 11 -40 23 -40 25 0 3 18 -4
40 -15 22 -11 40 -23 40 -25z m-165 -120 c72 -15 175 -60 175 -76 0 -12 -85
-54 -138 -68 -172 -47 -435 -20 -526 53 l-28 22 54 26 c111 55 317 74 463 43z"/>
<path d="M25008 12077 c-34 -28 -50 -70 -42 -112 l6 -33 -99 -32 c-54 -18
-100 -34 -102 -36 -2 -2 20 -72 49 -156 125 -365 160 -471 155 -478 -3 -5 -1
-10 5 -12 5 -1 64 -163 130 -358 67 -195 157 -460 201 -588 44 -128 77 -238
73 -244 -4 -6 -3 -8 2 -5 5 3 27 -46 48 -109 21 -63 42 -114 45 -114 4 0 47
14 96 30 49 17 94 30 101 30 6 0 15 -11 18 -25 8 -31 60 -65 101 -65 38 0 91
32 100 61 7 22 -2 61 -37 159 -11 30 -23 69 -27 86 -5 18 -12 38 -17 45 -5 8
-9 16 -10 19 0 3 -3 12 -7 20 -6 15 -25 87 -28 105 -1 6 -7 18 -14 29 -8 10
-11 25 -8 34 5 11 3 13 -7 7 -9 -5 -11 -4 -6 3 4 7 4 18 -1 25 -4 6 -8 17 -8
22 0 6 -8 27 -18 49 -9 21 -14 42 -11 47 3 5 0 9 -7 9 -7 0 -10 3 -6 6 3 3 -3
26 -14 51 -11 25 -17 48 -15 51 3 2 -1 11 -9 18 -8 8 -12 21 -9 29 4 8 1 15
-6 15 -6 0 -8 5 -5 10 4 6 1 17 -5 25 -7 8 -10 15 -7 15 3 0 -2 19 -13 42 -10
23 -16 46 -14 50 3 4 0 8 -5 8 -6 0 -11 10 -11 23 -1 12 -7 33 -14 46 -8 14
-12 31 -9 38 3 7 0 13 -6 13 -6 0 -10 3 -9 8 0 4 -2 14 -5 22 -20 46 -45 129
-40 134 4 3 1 6 -6 6 -7 0 -11 6 -8 14 3 7 2 17 -3 22 -4 5 -13 25 -18 44 -21
69 -59 170 -72 185 -10 12 -10 15 0 15 9 0 7 7 -6 22 -12 13 -13 18 -4 13 13
-8 13 -7 1 8 -7 9 -10 17 -6 17 4 0 3 6 -2 13 -6 6 -22 48 -37 92 -15 44 -29
87 -33 95 -3 8 -7 20 -8 25 -7 32 -70 211 -76 215 -3 3 -5 13 -3 23 1 9 -1 17
-6 17 -4 0 -11 16 -14 35 -4 19 -13 47 -21 62 -8 15 -15 36 -15 45 0 42 -98
52 -142 15z"/>
<path d="M4427 12015 c-54 -7 -100 -15 -103 -18 -3 -3 -8 -30 -11 -61 l-6 -55
-69 -22 c-74 -23 -93 -21 -167 14 -61 29 -113 27 -184 -7 -49 -23 -56 -30 -46
-42 10 -12 9 -13 -5 -8 -14 5 -16 -4 -16 -71 l0 -78 -99 7 -99 7 -26 -38 c-26
-38 -32 -58 -18 -66 4 -2 2 -3 -5 -1 -17 4 -19 -16 -21 -193 -2 -144 0 -167
17 -201 31 -60 37 -62 134 -54 l87 8 0 -82 0 -82 76 -36 c42 -20 87 -36 99
-36 13 0 59 14 102 30 l78 30 68 -17 67 -17 0 -58 c0 -66 -8 -62 139 -79 l104
-12 46 51 46 52 95 0 c94 0 96 -1 112 -27 9 -16 28 -39 42 -52 26 -25 26 -25
134 -13 145 15 142 13 142 78 l0 53 43 12 c23 7 47 18 53 26 6 7 72 40 145 74
136 61 172 68 232 44 14 -6 17 -2 17 22 l0 29 92 -9 93 -9 22 29 c49 60 53 81
53 263 0 127 -3 169 -12 164 -7 -4 -8 -3 -4 4 4 6 -5 34 -19 63 l-26 51 -96
-7 -96 -8 5 77 c4 60 2 76 -8 72 -8 -3 -11 0 -8 8 6 15 -122 76 -159 76 -12 0
-57 -14 -101 -31 -76 -30 -79 -30 -124 -15 -25 9 -54 16 -64 16 -15 0 -18 8
-18 48 0 68 -12 79 -103 91 -136 19 -142 18 -183 -37 l-36 -49 -106 3 -107 2
-33 43 c-32 42 -51 60 -62 58 -3 -1 -49 -7 -103 -14z m708 -88 c-8 -21 -18
-37 -20 -37 -3 0 2 16 10 36 8 20 15 39 15 42 0 3 2 3 5 0 3 -3 -2 -21 -10
-41z m-791 -17 c5 -17 4 -20 -2 -10 -5 8 -13 26 -16 40 -5 17 -4 20 2 10 5 -8
13 -26 16 -40z m81 -188 c-3 -3 -11 0 -18 7 -9 10 -8 11 6 5 10 -3 15 -9 12
-12z m-505 4 c0 -2 -8 -10 -17 -17 -16 -13 -17 -12 -4 4 13 16 21 21 21 13z
m1621 -13 c13 -16 12 -17 -3 -4 -17 13 -22 21 -14 21 2 0 10 -8 17 -17z m-693
-38 c2 -2 -56 -3 -130 -2 -94 1 -117 3 -78 8 49 5 200 1 208 -6z m118 -29 c36
-13 71 -29 78 -36 6 -6 -10 -2 -35 9 -25 12 -70 27 -100 35 -30 8 -44 15 -32
15 12 1 52 -10 89 -23z m-1189 -118 c-3 -8 -6 -5 -6 6 -1 11 2 17 5 13 3 -3 4
-12 1 -19z m1138 -51 c54 -15 142 -55 150 -67 8 -13 -89 -59 -161 -76 -84 -21
-265 -23 -349 -5 -33 7 -88 26 -123 43 -49 23 -61 32 -52 43 18 21 110 57 185
71 84 16 277 11 350 -9z m-731 -33 c3 -8 2 -12 -4 -9 -6 3 -10 10 -10 16 0 14
7 11 14 -7z m-47 -29 c0 -8 -4 -12 -9 -9 -5 3 -6 10 -3 15 9 13 12 11 12 -6z
m1187 -7 c-2 -3 -13 -6 -24 -5 -24 2 -18 13 9 13 11 0 18 -4 15 -8z"/>
<path d="M24598 11944 c-38 -20 -60 -66 -56 -116 l3 -41 -91 -31 -91 -31 12
-40 c7 -22 66 -193 130 -380 64 -187 121 -351 125 -365 5 -14 70 -205 145
-425 75 -220 170 -499 211 -620 41 -121 79 -224 83 -228 5 -5 48 5 97 22 49
17 89 31 90 31 1 0 7 -14 14 -30 27 -65 129 -82 181 -31 23 24 28 36 25 63 -3
18 -6 34 -7 36 -1 1 -2 5 -3 10 -2 7 -42 116 -53 142 -3 8 -5 21 -4 28 1 6 -3
12 -9 12 -7 0 -10 6 -7 13 2 6 -1 23 -8 37 -7 14 -23 54 -35 90 -12 36 -25 74
-29 85 -16 41 -33 91 -35 105 -1 8 -7 26 -13 40 -25 58 -42 113 -37 122 3 5 1
15 -6 22 -12 16 -61 152 -63 178 -1 9 -5 14 -9 12 -7 -5 -13 27 -9 49 1 4 -5
14 -13 22 -8 8 -17 34 -21 57 -4 24 -13 52 -20 63 -7 11 -16 36 -20 55 -4 19
-11 41 -16 50 -14 27 -39 100 -34 100 3 0 -4 16 -15 36 -11 19 -16 33 -11 30
8 -5 -35 123 -62 184 -6 14 -11 30 -12 35 0 6 -4 16 -8 23 -5 6 -5 17 -2 22 3
6 1 10 -5 10 -6 0 -8 5 -5 10 4 6 3 16 -2 23 -22 30 -78 195 -74 217 2 8 -1
11 -5 7 -7 -7 -34 68 -37 106 -1 9 -5 17 -9 17 -4 0 -8 9 -8 19 0 11 -5 23
-11 26 -6 4 -8 13 -5 21 3 8 1 14 -4 14 -6 0 -9 3 -8 8 5 17 -25 83 -42 92
-26 14 -70 12 -102 -6z"/>
<path d="M25293 11705 c33 -97 61 -174 63 -172 5 5 -104 329 -114 339 -4 4 19
-71 51 -167z"/>
<path d="M24175 11788 c-34 -29 -36 -34 -34 -86 3 -53 2 -55 -39 -86 -59 -44
-99 -101 -122 -175 -31 -99 -27 -142 35 -330 30 -92 55 -174 55 -182 0 -8 -14
-32 -30 -53 -17 -22 -30 -43 -30 -48 0 -12 218 -650 228 -668 5 -8 33 -22 62
-30 l53 -15 58 -169 c31 -93 70 -187 86 -210 64 -90 173 -148 292 -152 61 -3
65 -4 77 -32 16 -40 51 -62 96 -62 51 0 84 17 101 52 13 28 12 37 -18 123 -18
50 -38 101 -44 112 -5 11 -8 23 -5 25 2 3 -5 26 -16 52 -11 26 -19 50 -18 54
1 7 -4 22 -33 91 -10 24 -16 47 -13 52 3 5 0 9 -5 9 -6 0 -10 3 -9 8 0 4 -1
14 -4 22 -3 8 -10 31 -16 50 -6 19 -40 121 -77 225 -36 105 -77 226 -91 270
-15 44 -31 86 -36 92 -6 7 -8 20 -4 28 3 8 2 15 -3 15 -5 0 -12 12 -16 28 -5
15 -9 32 -11 37 -2 6 -8 26 -13 45 -19 72 -115 335 -122 338 -4 2 -5 10 -2 18
3 8 0 14 -7 14 -6 0 -9 3 -7 8 4 6 -23 94 -46 152 -16 38 -68 197 -71 212 -1
10 -5 21 -9 24 -4 4 -7 16 -7 26 0 12 -4 16 -12 12 -8 -5 -9 0 -6 14 4 12 2
22 -3 22 -6 0 -9 6 -8 13 4 21 -19 65 -40 76 -37 20 -78 13 -116 -21z"/>
<path d="M25361 11510 c0 -8 4 -22 9 -30 12 -18 12 -2 0 25 -6 13 -9 15 -9 5z"/>
<path d="M25402 11390 c3 -8 22 -66 43 -128 20 -62 39 -112 41 -109 5 4 -73
238 -82 246 -4 3 -5 -1 -2 -9z"/>
<path d="M6281 11259 c-85 -10 -157 -21 -160 -24 -3 -4 7 -41 23 -83 43 -117
42 -112 10 -111 -17 1 -22 3 -11 6 22 6 21 15 -13 98 l-29 70 0 -87 c-1 -64 2
-88 12 -89 15 -1 -186 -57 -233 -65 -28 -5 -63 6 -172 50 -75 31 -150 56 -166
56 -34 0 -284 -110 -289 -127 -3 -7 14 -21 36 -33 23 -11 41 -23 41 -25 0 -3
-22 6 -50 20 l-50 25 0 -136 0 -137 -77 7 c-43 3 -118 9 -168 12 l-90 6 -54
-88 c-51 -83 -52 -88 -35 -102 18 -13 18 -14 -2 -8 -21 6 -21 3 -27 -121 -4
-71 -7 -204 -7 -297 0 -93 -3 -173 -6 -178 -6 -9 68 -152 94 -182 16 -17 28
-18 152 -12 73 4 147 10 162 13 l28 6 0 -146 c0 -106 3 -148 13 -154 48 -30
265 -123 288 -123 16 0 96 25 177 56 l147 56 85 -26 c47 -14 97 -28 113 -32
l27 -6 0 -99 c0 -94 1 -100 23 -109 31 -13 347 -52 388 -48 28 2 44 16 102 86
l69 82 177 0 176 0 63 -85 63 -85 57 0 c64 0 348 34 375 45 14 6 17 21 17 104
l0 97 73 18 c39 10 92 25 117 33 l46 15 152 -61 c84 -34 159 -61 168 -61 18 0
256 103 292 126 21 14 22 20 22 154 0 139 0 140 23 139 12 0 81 -6 152 -14 99
-10 136 -10 154 -2 13 7 45 46 71 87 l47 76 7 314 7 315 -53 95 -53 95 -70 0
c-39 0 -113 -4 -165 -8 l-95 -8 3 141 3 140 -38 -21 c-21 -11 -29 -14 -19 -5
11 9 23 16 28 16 4 0 8 6 8 13 0 15 -256 137 -286 137 -11 0 -87 -26 -169 -59
l-150 -58 -50 15 c-27 8 -86 25 -130 37 -44 12 -74 24 -67 26 9 3 12 26 10 84
l-3 80 -32 -75 c-31 -75 -31 -75 -10 -82 22 -6 22 -6 -1 -7 -35 -2 -35 19 2
104 20 46 31 84 26 89 -10 10 -378 59 -396 52 -7 -3 -43 -42 -80 -88 l-66 -84
-189 1 -189 2 -63 84 -62 84 -50 2 c-28 1 -119 -7 -204 -18z m-861 -414 c0 -3
-18 4 -40 15 -22 11 -40 23 -40 25 0 3 18 -4 40 -15 22 -11 40 -23 40 -25z
m2940 30 c0 -3 -36 -23 -81 -45 l-80 -41 58 -43 c32 -24 69 -56 82 -70 14 -14
36 -27 50 -27 23 -2 24 -2 4 -6 -16 -3 -40 11 -87 51 -36 30 -76 62 -90 71
-14 10 -23 21 -20 26 3 5 40 27 82 49 86 43 82 42 82 35z m-2890 -54 l31 -19
-37 -23 c-21 -12 -65 -45 -98 -73 -34 -27 -50 -37 -36 -22 14 15 53 49 87 74
l63 46 -28 18 c-36 24 -21 23 18 -1z m1565 -156 c169 -23 282 -60 381 -122 23
-16 45 -33 48 -40 3 -6 -25 7 -61 30 -36 23 -68 42 -72 43 -3 0 -19 6 -36 13
-69 28 -228 62 -342 73 -114 11 -263 5 -416 -17 l-32 -5 31 10 c93 29 343 37
499 15z m-1752 -2 c-7 -2 -21 -2 -30 0 -10 3 -4 5 12 5 17 0 24 -2 18 -5z
m819 -20 c-6 -2 -10 -9 -7 -13 3 -5 1 -11 -4 -14 -7 -5 -8 11 -2 32 1 1 7 2
14 1 9 0 9 -2 -1 -6z m1579 -110 c13 -16 12 -17 -3 -4 -10 7 -18 15 -18 17 0
8 8 3 21 -13z m43 5 c-3 -4 -11 -5 -19 -1 -21 7 -19 12 4 10 11 0 18 -5 15 -9z
m-1978 -48 c0 -12 -4 -16 -9 -11 -5 5 -6 14 -3 20 10 15 12 14 12 -9z m2891
-56 c-3 -3 -12 -4 -19 -1 -8 3 -5 6 6 6 11 1 17 -2 13 -5z m-3470 -61 c-3 -10
-5 -2 -5 17 0 19 2 27 5 18 2 -10 2 -26 0 -35z m3330 0 c-3 -10 -5 -2 -5 17 0
19 2 27 5 18 2 -10 2 -26 0 -35z m-1380 -42 c130 -27 251 -75 311 -122 l23
-18 -41 -30 c-137 -99 -468 -159 -723 -132 -192 21 -408 92 -462 151 -16 17
-14 20 22 44 76 53 262 109 423 130 83 10 357 -4 447 -23z m1380 -48 c-3 -10
-5 -2 -5 17 0 19 2 27 5 18 2 -10 2 -26 0 -35z m-3330 5 c-3 -8 -6 -5 -6 6 -1
11 2 17 5 13 3 -3 4 -12 1 -19z m2693 -162 c0 -2 -8 -10 -17 -17 -16 -13 -17
-12 -4 4 13 16 21 21 21 13z"/>
<path d="M25490 11137 c0 -13 113 -338 116 -334 2 2 -21 77 -51 167 -48 144
-65 187 -65 167z"/>
<path d="M25612 10775 c17 -62 233 -684 236 -677 3 10 -226 684 -235 692 -3 3
-4 -4 -1 -15z"/>
</g>
</svg>
